<svg id="svg" version="1.1" viewBox="0 0 300 250" width="300" height="250" xmlns="http://www.w3.org/2000/svg"><svg xmlns="http://www.w3.org/2000/svg"><defs><clipPath id="clip-1"><rect x="0" y="0" transform="scale(0.14648,0.14646)" width="2048" height="1707" fill="none"/></clipPath></defs><g clip-path="url(#clip-1)" fill="none" fill-rule="nonzero" stroke="none" stroke-width="1" stroke-linecap="butt" stroke-linejoin="miter" stroke-miterlimit="10" stroke-dasharray="" stroke-dashoffset="0" font-family="none" font-weight="none" font-size="none" text-anchor="none" style="mix-blend-mode: normal"><path d="M194.71289,122.12346c1.14111,-0.89353 3.81738,-4.6652 4.8252,-5.96339c3.63428,-4.64938 7.06787,-9.45255 10.29199,-14.39616c4.65967,-7.26684 8.98682,-14.74282 12.96533,-22.40451c3.11426,-5.87346 5.92969,-11.25117 8.19287,-17.43746c4.89404,-13.38357 -0.5083,-20.76992 -13.54834,-24.37786c-12.24463,-3.38767 -7.23193,-8.37302 2.15479,-9.63225c7.96729,-1.19859 15.8042,-1.59153 23.91357,-1.93585c6.32373,-0.31327 12.65625,-0.44318 18.9873,-0.38928c8.71875,0.01655 30.23877,-1.01933 28.12061,12.6031c-0.49951,3.21148 -4.979,10.07704 -6.73242,13.27314c-1.90576,3.53163 -3.78369,7.07821 -5.63379,10.63957l-52.70215,99.5744l-14.84766,28.23228c-2.50488,4.80668 -5.92676,10.57704 -7.67432,15.64001c-1.02539,2.97159 -1.29053,6.51289 0.57422,9.21646c4.94531,7.17047 22.43262,9.69977 30.68555,12.15144c1.90869,0.56678 4.12061,1.04862 5.74512,2.23931c0.62695,0.45987 1.08105,1.07499 0.90674,1.88489c-0.13623,0.63269 -0.67969,1.03251 -1.20996,1.34153c-2.05518,1.19801 -5.19434,1.41037 -7.55566,1.57293c-3.99316,0.2768 -8.07275,0.14646 -12.07617,0.15671c-6.95947,0.03808 -13.91748,0.03954 -20.87695,0.00293l-29.80957,0.00146c-4.53662,-0.01465 -9,0.03954 -13.53516,-0.0908c-4.92334,1.53486 -14.69912,0.05565 -19.50718,-1.88781c-10.34604,-4.18278 -12.92051,-11.77504 -8.9146,-21.95079c-2.56963,2.34915 -5.77192,4.58992 -8.63555,6.60516c-20.43311,14.37903 -46.51978,22.9379 -70.95381,13.83275c-14.06191,-5.23872 -25.2936,-14.78178 -31.62173,-28.43878c-12.21621,-26.36204 3.48472,-53.10486 14.71128,-76.68292c5.47236,-11.30272 11.50503,-22.72144 17.20562,-33.86233c5.71934,-11.1775 15.74136,-29.69801 -2.30098,-35.37405c-2.2248,-0.82777 -5.78628,-1.10076 -7.87603,-1.91564c-5.34316,-2.08348 0.31143,-5.8717 3.19351,-7.3638c4.97344,-2.5744 10.31147,-4.60062 15.8376,-6.17575c5.83052,-1.71178 11.81016,-2.86746 17.85864,-3.45152c13.18843,-1.33743 47.75933,-1.37419 59.1624,5.07542c1.78301,1.00849 3.40356,2.53896 3.95068,4.57381c0.4645,1.72832 0.17915,3.68688 -0.57158,5.29379c-1.33989,2.86819 -3.44209,5.55888 -5.24897,8.15861l-7.09922,10.32279c-7.71226,11.26303 -15.07002,22.76479 -22.06216,34.48828c-6.88813,11.76216 -13.41021,23.73492 -19.55713,35.90085c-2.53169,5.02856 -5.15156,10.41198 -7.36641,15.5804c-3.21753,7.50732 -7.61807,18.53837 -5.38989,26.74282c0.59854,2.26128 2.0959,4.17985 4.14463,5.31049c6.29839,3.47393 16.31177,-1.98008 21.53569,-5.68834c21.03384,-14.93409 34.51582,-38.75117 47.25059,-60.57557c7.50996,-12.86204 14.78291,-25.86043 21.81855,-38.98828c3.35449,-6.24297 7.37402,-13.42209 11.34375,-19.22188c5.76563,-8.42238 14.1123,-14.91476 23.96777,-17.95299c10.0708,-3.10472 31.30078,-3.55726 26.4668,12.97715c-3.15234,9.9587 -9.22998,20.59344 -14.15186,29.91696c-3.85107,7.41286 -7.81494,14.7664 -11.8916,22.058c-2.02148,3.56869 -4.56885,7.32718 -6.45996,10.79057z" fill="#fded02"/><path d="M194.71289,122.12346c1.14111,-0.89353 3.81738,-4.6652 4.8252,-5.96339c3.63428,-4.64938 7.06787,-9.45255 10.29199,-14.39616c4.65967,-7.26684 8.98682,-14.74282 12.96533,-22.40451c3.11426,-5.87346 5.92969,-11.25117 8.19287,-17.43746c4.89404,-13.38357 -0.5083,-20.76992 -13.54834,-24.37786c-12.24463,-3.38767 -7.23193,-8.37302 2.15479,-9.63225c7.96729,-1.19859 15.8042,-1.59153 23.91357,-1.93585c6.32373,-0.31327 12.65625,-0.44318 18.9873,-0.38928c8.71875,0.01655 30.23877,-1.01933 28.12061,12.6031c-0.49951,3.21148 -4.979,10.07704 -6.73242,13.27314c-1.90576,3.53163 -3.78369,7.07821 -5.63379,10.63957l-52.70215,99.5744l-14.84766,28.23228c-2.50488,4.80668 -5.92676,10.57704 -7.67432,15.64001c-1.02539,2.97159 -1.29053,6.51289 0.57422,9.21646c4.94531,7.17047 22.43262,9.69977 30.68555,12.15144c1.90869,0.56678 4.12061,1.04862 5.74512,2.23931c0.62695,0.45987 1.08105,1.07499 0.90674,1.88489c-0.13623,0.63269 -0.67969,1.03251 -1.20996,1.34153c-2.05518,1.19801 -5.19434,1.41037 -7.55566,1.57293c-3.99316,0.2768 -8.07275,0.14646 -12.07617,0.15671c-6.95947,0.03808 -13.91748,0.03954 -20.87695,0.00293l-29.80957,0.00146c-4.53662,-0.01465 -9,0.03954 -13.53516,-0.0908c-4.41211,-0.80551 -7.8457,-1.56561 -11.38271,-4.5826c-5.6332,-4.80521 -3.76201,-12.76948 -0.81313,-18.52665c3.04058,-5.88313 7.16704,-11.26977 11.25981,-16.46309c6.45264,-8.18834 13.40479,-16.0662 20.23975,-23.93966c-17.82715,7.52929 -35.80649,14.69537 -53.92676,21.48946c2.24253,-1.99766 6.74194,-5.19625 9.26602,-7.14118c5.15098,-3.98946 10.23384,-8.06532 15.24653,-12.22613c18.09243,-15.02197 34.50454,-31.95782 48.94937,-50.51274z" fill="#0067fd"/></g></svg></svg>